<svg width="152" height="152" viewBox="0 0 152 152" fill="none" xmlns="http://www.w3.org/2000/svg">
<path fill-rule="evenodd" clip-rule="evenodd" d="M4.3934 7.34155C-1.46446 13.1994 -1.46447 22.6969 4.39339 28.5547L51.5505 75.7119L4.68974 122.573C-1.16813 128.431 -1.16813 137.928 4.68974 143.786L7.63789 146.734C13.4958 152.592 22.9932 152.592 28.8511 146.734L75.7119 99.8732L122.573 146.734C128.43 152.592 137.928 152.592 143.786 146.734L146.734 143.786C152.592 137.928 152.592 128.43 146.734 122.573L99.8732 75.7119L147.03 28.5548C152.888 22.6969 152.888 13.1995 147.03 7.34159L144.082 4.39344C138.224 -1.46443 128.727 -1.46444 122.869 4.39343L75.7119 51.5505L28.5548 4.3934C22.6969 -1.46447 13.1994 -1.46447 7.34155 4.3934L4.3934 7.34155Z" fill="#F1F3F6"/>
</svg>
